<svg xmlns="http://www.w3.org/2000/svg" xmlns:xlink="http://www.w3.org/1999/xlink" width="20px" height="20px" viewBox="0 0 22 20" version="1.1">
<g id="surface1">
<path style=" stroke:none;fill-rule:evenodd;fill:rgb(100%,35.686275%,14.117647%);fill-opacity:1;" d="M 18.171875 3.390625 C 19.316406 3.007812 19.839844 1.894531 19.316406 0.851562 C 18.828125 -0.0507812 17.648438 -0.363281 16.109375 0.539062 L 12.015625 2.9375 C 10.867188 3.632812 10.542969 4.222656 10.542969 4.953125 C 10.542969 5.820312 11 6.652344 12.441406 7 L 17.1875 8.25 C 18.597656 8.632812 19.449219 8.078125 19.679688 7 C 19.839844 6.027344 19.351562 4.988281 18.039062 4.847656 L 15.878906 4.605469 C 15.617188 4.570312 15.585938 4.292969 15.847656 4.1875 Z M 0.476562 13.144531 C 3.242188 17.476562 7.070312 20 11.527344 20 C 15.855469 20 18.816406 17.953125 21.3125 14.542969 C 22.246094 13.28125 22.210938 11.984375 21.3125 11.269531 C 20.480469 10.585938 19.25 10.824219 18.316406 12.085938 C 16.585938 14.40625 14.757812 16.007812 11.527344 16.007812 C 8.234375 16.007812 5.671875 13.960938 3.671875 10.960938 C 2.875 9.734375 1.644531 9.460938 0.746094 10.109375 C -0.0859375 10.722656 -0.285156 12.019531 0.480469 13.144531 Z M 0.476562 13.144531 "/>
</g>
</svg>