<svg
  xmlns="http://www.w3.org/2000/svg"
  id="Floor"
  x="0"
  y="0"
  version="1.1"
  viewBox="0 0 418.7 379.1"
>
  <path
    fill="var(--ql-color-accent1)"
    d="M16.7 202.8s2.3 72 62.4 120 143.4 51.4 210.8 56c67.4 4.6 119.2-33.6 127-91.3 7.8-57.7-43.7-74.6-71.7-140.3-28-65.7-25.5-87.3-84.6-127.7C201.5-21 109 3.8 60.5 73.1 12 142.3 16.7 202.8 16.7 202.8z"
  />
  <path
    fill="var(--ql-color-white)"
    d="M16.7 202.8s2.3 72 62.4 120 143.4 51.4 210.8 56c67.4 4.6 119.2-33.6 127-91.3 7.8-57.7-43.7-74.6-71.7-140.3-28-65.7-25.5-87.3-84.6-127.7C201.5-21 109 3.8 60.5 73.1 12 142.3 16.7 202.8 16.7 202.8z"
    opacity=".7"
  />
  <path
    d="M44.8 108.7V83c0-18.2 15.2-33.1 33.8-33.1 18.6 0 33.8 14.8 33.8 33.1v25.8h13.5V83c0-25.5-21.2-46.3-47.3-46.3S31.4 57.4 31.4 83v25.8h13.4zM26.3 108.9h103.2v85.4H26.3z"
    class="illustration-access-denied-2"
  />
  <path
    d="M88.7 144.4c0-6.1-5-11-11.2-11-6.2 0-11.2 4.9-11.2 11 0 4.2 2.4 7.8 5.9 9.7l-1.9 19.4h14.4L82.8 154c3.5-1.8 5.9-5.5 5.9-9.6z"
    class="illustration-access-denied-2"
  />
  <path
    d="m193.8 197-25.6-1.7v-.4l-3.2.2-3.2-.2v.4l-25.6 1.7-19 155.8h19l28.2-124.2h1.2l28.2 124.2h19z"
    class="illustration-access-denied-3"
  />
  <path
    d="m117.2 352.8-4.6 7.2-14.3 6.3s-2.5 1.3-2.5 4.2v5.5h40.8s.4-4.6 0-8.8c-.4-4.2-.4-14.3-.4-14.3h-19z"
    class="illustration-access-denied-4"
  />
  <path
    d="M95.7 371.3v4.6h40.8s.2-2 .2-4.6h-41z"
    class="illustration-access-denied-3"
  />
  <path
    d="m212.7 352.8 4.6 7.2 14.3 6.3s2.5 1.3 2.5 4.2v5.5h-40.8s-.4-4.6 0-8.8c.4-4.2.4-14.3.4-14.3h19z"
    class="illustration-access-denied-4"
  />
  <path
    d="M234.2 371.3v4.6h-40.8s-.2-2-.2-4.6h41z"
    class="illustration-access-denied-3"
  />
  <path
    d="M125.3 124.5s-30 42.2-30 45.2c0 3.1 4.8 26.9 12.4 29.2 7.6 2.2 11.8-1.7 13.2-9.5 1.4-7.9-3.4-19.1-3.4-19.1l14-12.6-6.2-33.2z"
    class="illustration-access-denied-5"
  />
  <path
    d="M119.5 188.3s8.7-1.4 10.9-.8c2.2.6 3.9 5.9 3.9 5.9s.8 7.9-.6 9.5c-1.4 1.7-8.1 3.6-10.9 4.2-2.8.6-8.7-5.9-10.9-9.8-2.3-3.9 1.7-10.7 7.6-9z"
    class="illustration-access-denied-6"
  />
  <path
    d="m131.6 122.6-6.3 1.9 9.9 66.4h59.1l9-66-8-3-29.7-6.5z"
    class="illustration-access-denied-5"
  />
  <path
    d="m197.6 144.8-1.4 9.6-10.3 2.5-10.5-4.2.7-8.7z"
    class="illustration-access-denied-3"
  />
  <path
    d="M184.7 152.6c0-1 .8-1.8 1.8-1.8s1.8.8 1.8 1.8-.8 1.8-1.8 1.8c-.9 0-1.8-.8-1.8-1.8z"
    class="illustration-access-denied-4"
  />
  <path
    d="m159.3 127.6 5.6 6.5-7.1 45.1 7.4 11.9 8.8-12.4-7.4-44.4 6.3-6.1-6.7-8.6zM154 116.3l-25.5 6.3.8 3.1 24.9-6.9zM174.8 115.6l25.4 6.3-.7 3-24.9-6.9z"
    class="illustration-access-denied-3"
  />
  <path
    d="M200.2 121.9s9.6 2.2 15.5 5.5c5.9 3.4 7.3 10.9 3.9 19.4-3.4 8.4-13.8 7.3-18.5 5.1-4.8-2.2-6.2-10.7-5.3-14.3M155.1 113.1l-2.9 1.9.8 19.3 12.4-8.8 13 9 1.2-19.1-3.5-2.9z"
    class="illustration-access-denied-5"
  />
  <path
    d="M180.2 90.1s7.1-1.7 8.4-8.8c1.3-7.1-11.5-15.6-20.2-17.2-8.8-1.5-21.8 7.6-23.9 13.9-2.1 6.3 6.1 12.6 14.9 13.9 8.8 1.5 20.8-1.8 20.8-1.8z"
    class="illustration-access-denied-3"
  />
  <path
    d="M153.9 91.3s-3.8-5.9-4.8-.8c-1 5.2 3.1 7.4 4.8 7.3 1.7-.2 0-6.5 0-6.5zM178.7 91.3s3.8-5.9 4.8-.8c1 5.2-3.1 7.4-4.8 7.3-1.7-.2 0-6.5 0-6.5zM154.7 102.9v12.7l10.7 9.9 12.1-10.3v-11.9z"
    class="illustration-access-denied-6"
  />
  <path
    d="M153.1 87.4s-.6 11.8.4 15.6c1 3.8 7.3 11.8 12.2 13.5 5 1.7 11.8-8.6 13.4-12 1.5-3.4 1-17.9 1-17.9s-2.1-5-6.3-6.5c-4.3-1.4-17.2-4.1-20.7 7.3z"
    class="illustration-access-denied-6"
  />
  <path
    d="M161.1 93.7c0 .9-.4 1.6-.9 1.6s-.9-.7-.9-1.6c0-.9.4-1.6.9-1.6s.9.7.9 1.6zM172.8 93.7c0 .9-.4 1.6-.9 1.6s-.9-.7-.9-1.6c0-.9.4-1.6.9-1.6s.9.7.9 1.6z"
    class="illustration-access-denied-7"
  />
  <path
    d="M163.1 98.3c-.9 0-1.6.6-1.6 1.2 0 .7.7 1.2 1.6 1.2.4 0 .8-.1 1.1-.4.5.7 1.4 1.1 2.4 1.1s1.9-.4 2.4-1c.3.2.6.3 1 .3.9 0 1.6-.6 1.6-1.2 0-.7-.7-1.2-1.6-1.2M164.6 106.1h4"
    class="illustration-access-denied-6"
  />
  <path
    d="M152.7 90.3s.1 3.8 1.4 2.8c1.3-1 1.7-7.5.6-8.4-1.2-.8-2 3.6-2 5.6zM177.3 90.3s.1 3.8 1.4 2.8c1.3-1 1.7-7.5.6-8.4-1.1-.8-2 3.6-2 5.6z"
    class="illustration-access-denied-3"
  />
  <path
    d="M152.7 87.2s.4.3.4.5c1.8 1 6.1 2.8 13 3.2 5.9.3 11-1.8 14-3.4v-.8c-.2-4.5-3.5-7.4-7.6-8.6-3.9-1.1-8.4-.9-12.2.6-2 .8-3.8 2-5.1 3.6-.5.6-3.2 4.3-2.5 4.9z"
    class="illustration-access-denied-4"
  />
  <path
    d="M153.1 87.4s4.8 1.3 13 1c8.2-.4 13.9-1 13.9-1s-5.6 5.7-13.8 6.1c-8.8.4-13.1-6.1-13.1-6.1z"
    class="illustration-access-denied-4"
  />
  <path
    d="m132.2 144.8 1.3 9.6 10.3 2.5 10.5-4.2-.7-8.7z"
    class="illustration-access-denied-3"
  />
  <path
    d="M145 152.6c0-1-.8-1.8-1.8-1.8s-1.8.8-1.8 1.8.8 1.8 1.8 1.8 1.8-.8 1.8-1.8zM134.3 190.3h60.6v9.5h-60.6z"
    class="illustration-access-denied-4"
  />
  <path
    d="M146 202.6h-13.2c-1.5 0-2.7-1.2-2.7-2.7v-6.5c0-1.5 1.2-2.7 2.7-2.7H146c1.5 0 2.7 1.2 2.7 2.7v6.5c0 1.5-1.2 2.7-2.7 2.7zM194.3 202.6h-13.2c-1.5 0-2.7-1.2-2.7-2.7v-6.5c0-1.5 1.2-2.7 2.7-2.7h13.2c1.5 0 2.7 1.2 2.7 2.7v6.5c-.1 1.5-1.3 2.7-2.7 2.7z"
    class="illustration-access-denied-4"
  />
  <path
    d="M159 190.8h13.2v8.4H159z"
    class="illustration-access-denied-8"
  />
  <path
    d="M117.5 170.4s-8.4-.6-11.5-5.9"
    class="illustration-access-denied-2"
  />
  <ellipse
    cx="211.1"
    cy="131.1"
    class="illustration-access-denied-5"
    rx="13.9"
    ry="14.6"
  />
  <ellipse
    cx="211.1"
    cy="123.7"
    class="illustration-access-denied-5"
    rx="10.9"
    ry="9.7"
  />
  <ellipse
    cx="211.1"
    cy="116.5"
    class="illustration-access-denied-6"
    rx="10.9"
    ry="9.7"
  />
  <path
    d="M193.6 95.5s.2 14.4.9 18.6c.7 4.2 3.7 9.8 7.7 9.8 4.1 0 7.9-1.5 7.9-1.5s4.8 2.6 9.4 1.8c4.6-.7 3.9-7.2 3.9-10s-.4-23.5-.4-23.5.4-2-1.5-2.4c-1.8-.4-2.8-.4-2.8-.4v-4.4s-.7-1.5-3.1-1.5c-2.4 0-2.6.6-2.6.6v-4.1s-2-3.2-4.6-1.7c-1.8 1.1-1.8 3-1.8 3l-.2 3.9s-4.4-1.7-4.8.9c-.4 2.6-1.1 18.4-1.1 18.4s-.6-5-1.5-7.4c-.9-2.3-5.4-2.3-5.4-.1z"
    class="illustration-access-denied-6"
  />
  <path
    d="m206.4 83.7.3 16.9M213 82.6l.2 18.2M218.7 87.9l-.4 12.7M204 100.5l16.7.7M200.5 103s0 2.4 1.8 3.6c1.8 1.1 5.9 4.1 6.4 8.9"
    class="illustration-access-denied-2"
  />
  <path
    d="M311.2 57.9V60h-5.3v7.8h6.5V70h-9V48.2h9v2.2h-6.5v7.4h5.3zM319.5 48.2c3.4 0 4.9 1.7 4.9 5V55c0 2.4-.8 3.9-2.7 4.5 2 .6 2.7 2.2 2.7 4.5v3.4c0 1 0 1.9.4 2.6h-2.5c-.3-.6-.4-1.2-.4-2.6V64c0-2.5-1.2-3.2-3.2-3.2H317V70h-2.4V48.2h4.9zm-.6 10.3c1.9 0 3.1-.6 3.1-3v-2.1c0-2-.7-3-2.5-3h-2.4v8.1h1.8zM331.8 48.2c3.4 0 4.9 1.7 4.9 5V55c0 2.4-.8 3.9-2.7 4.5 2 .6 2.7 2.2 2.7 4.5v3.4c0 1 0 1.9.4 2.6h-2.5c-.3-.6-.4-1.2-.4-2.6V64c0-2.5-1.2-3.2-3.2-3.2h-1.7V70h-2.4V48.2h4.9zm-.6 10.3c1.9 0 3.1-.6 3.1-3v-2.1c0-2-.7-3-2.5-3h-2.4v8.1h1.8zM339 53.5c0-3.3 1.7-5.5 5-5.5 3.4 0 5 2.1 5 5.5v11.3c0 3.3-1.7 5.5-5 5.5s-5-2.2-5-5.5V53.5zm2.4 11.4c0 2 .8 3.1 2.6 3.1s2.6-1.2 2.6-3.1V53.3c0-2-.8-3.1-2.6-3.1-1.7 0-2.6 1.2-2.6 3.1v11.6zM356.2 48.2c3.4 0 4.9 1.7 4.9 5V55c0 2.4-.8 3.9-2.7 4.5 2 .6 2.7 2.2 2.7 4.5v3.4c0 1 0 1.9.4 2.6H359c-.3-.6-.4-1.2-.4-2.6V64c0-2.5-1.2-3.2-3.2-3.2h-1.7V70h-2.4V48.2h4.9zm-.7 10.3c1.9 0 3.1-.6 3.1-3v-2.1c0-2-.7-3-2.5-3h-2.4v8.1h1.8zM290.6 193.9v2.2h-5v9.4h-2.4v-21.8h8.7v2.2h-6.2v7.9h4.9zM293.5 189c0-3.3 1.7-5.5 5-5.5 3.4 0 5 2.1 5 5.5v11.3c0 3.3-1.7 5.5-5 5.5s-5-2.2-5-5.5V189zm2.4 11.4c0 2 .8 3.1 2.6 3.1s2.6-1.2 2.6-3.1v-11.5c0-2-.8-3.1-2.6-3.1-1.7 0-2.6 1.2-2.6 3.1v11.5zM310.7 183.8c3.4 0 4.9 1.7 4.9 5v1.8c0 2.4-.8 3.9-2.7 4.5 2 .6 2.7 2.2 2.7 4.5v3.4c0 1 0 1.9.4 2.6h-2.5c-.3-.6-.4-1.2-.4-2.6v-3.4c0-2.5-1.2-3.2-3.2-3.2h-1.7v9.3h-2.4v-21.8h4.9zm-.6 10.2c1.9 0 3.1-.6 3.1-3v-2c0-2-.7-3-2.5-3h-2.4v8.1h1.8zM323 183.8c3.4 0 4.7 1.6 4.7 4.8v1c0 2.3-.7 3.7-2.6 4.3 2.1.6 2.9 2.3 2.9 4.7v1.8c0 3.3-1.6 5.1-5 5.1h-5v-21.8h5zm-.6 9.2c1.9 0 2.9-.6 2.9-2.9v-1.3c0-1.9-.7-2.9-2.4-2.9h-2.4v7h1.9zm.7 10.4c1.8 0 2.6-.9 2.6-3v-1.9c0-2.4-1-3.2-3.1-3.2h-2.1v8.1h2.6zM332.8 183.8v21.8h-2.4v-21.8h2.4zM340.4 183.8c3.4 0 5 2.1 5 5.4v11c0 3.3-1.6 5.4-5 5.4h-5.1v-21.8h5.1zm-.1 19.6c1.7 0 2.6-1.1 2.6-3.1v-11.2c0-2-.8-3.1-2.6-3.1h-2.6v17.4h2.6zM352.7 183.8c3.4 0 5 2.1 5 5.4v11c0 3.3-1.6 5.4-5 5.4h-5.1v-21.8h5.1zm0 19.6c1.7 0 2.6-1.1 2.6-3.1v-11.2c0-2-.8-3.1-2.6-3.1H350v17.4h2.7zM367.7 193.4v2.2h-5.3v7.8h6.5v2.2h-9v-21.8h9v2.2h-6.5v7.4h5.3zM373.3 205.6h-2.2v-21.8h3.1l5 15.8v-15.8h2.1v21.8h-2.5l-5.6-17.6v17.6zM267.8 137.3 290 84.7h13.3v52.6h5.8v11.1h-5.8v14.1h-12v-14.1h-23.6v-11.1zm23.5 0V108L279 137.3h12.3zM313.7 103.4c0-12.5 6.6-19.6 18.6-19.6 12 0 18.6 7.1 18.6 19.6v40.5c0 12.5-6.6 19.6-18.6 19.6-12 0-18.6-7.1-18.6-19.6v-40.5zm12.2 41.2c0 5.6 2.4 7.7 6.3 7.7s6.3-2.1 6.3-7.7v-42c0-5.6-2.4-7.7-6.3-7.7s-6.3 2.1-6.3 7.7v42zM382.3 103.8c0-7-2.4-8.9-6.3-8.9s-6.3 2.1-6.3 7.7v5h-11.6v-4.2c0-12.5 6.2-19.6 18.2-19.6s18.2 7.1 18.2 19.6v2c0 8.3-2.7 13.6-8.6 16 6.1 2.7 8.6 8.5 8.6 16.3v6.1c0 12.5-6.2 19.6-18.2 19.6s-18.2-7.1-18.2-19.6v-6.5h11.6v7.2c0 5.6 2.4 7.7 6.3 7.7s6.3-1.9 6.3-8.8v-6.1c0-7.2-2.4-9.9-8-9.9h-4.1v-11.1h4.8c4.6 0 7.3-2 7.3-8.2v-4.3z"
    class="illustration-access-denied-7"
  />
  <path
    d="M48.1 375.5H33.8l19-132.5h14.3z"
    class="illustration-access-denied-9"
  />
  <path
    d="M76.6 375.5h14.3L71.8 243H57.6z"
    class="illustration-access-denied-10"
  />
  <path
    d="M250.4 375.5h-14.3l19-132.5h14.3z"
    class="illustration-access-denied-9"
  />
  <path
    d="M278.9 375.5h14.3l-19-132.5h-14.3z"
    class="illustration-access-denied-10"
  />
  <path
    d="M16.9 222.2h271.9v26.4H16.9z"
    class="illustration-access-denied-11"
  />
  <path
    d="M23.6 222.2h271.9v26.4H23.6z"
    class="illustration-access-denied-11"
  />
  <path
    d="M28 248.6h23.1L63 222.2H40zM119.4 222.2H96.3l-11.9 26.4h23.1zM288.4 222.2h-23.1l-11.9 26.4h23.1zM232.1 222.2H209l-11.9 26.4h23.1zM175.7 222.2h-23.1l-11.9 26.4h23.1z"
    class="illustration-access-denied-7"
  />
  <path
    d="M294 233.9h-45M293.2 238.4h-7.1M22.4 237.2h45M23.2 232.3h56.9"
    class="illustration-access-denied-12"
  />
  <path
    d="M292.6 369.8h77.1v5.8h-77.1z"
    class="illustration-access-denied-3"
  />
  <path
    d="M356.7 369.6h-51.1l20-109h11.1z"
    class="illustration-access-denied-5"
  />
  <path
    d="M318.2 301.1h25.9l-2.5-13.5h-20.9z"
    class="illustration-access-denied-8"
  />
  <path
    d="m349 351.4 1.3 7.5M334.4 266.7l13 75.3"
    class="illustration-access-denied-5"
  />
  <path
    d="M411.2 375.5h6.9M.6 375.5h401"
    class="illustration-access-denied-2"
  />
</svg>