<svg
  xmlns="http://www.w3.org/2000/svg"
  id="Table"
  x="0"
  y="0"
  version="1.1"
  viewBox="0 0 451.1 356.6"
>
  <defs>
    <path
      id="reuse-0"
      d="M2.1 279.7c.1-.2 444.9-3.5 444.7 0-.2 2.8 30.2-113.3-67-107.6 0 0 21.8-46.6-10.4-74.3-34-29.3-77.4-4.1-77.4-4.1s-38.9-96.2-126.7-67C65 60.2 92.1 174.9 92.1 174.9s-91.4-7.6-90 104.8z"
      fill="var(--ql-color-accent1)"
      opacity="0.18"
    />
    <path
      id="reuse-1"
      d="m125 47.8-37-5.1-3.4 24.2 36.6 6.1 3.8-25.2zm-2.2.7-18.1 8.7-14.8-13.3 32.9 4.6zM85.7 66l3.1-21.8 15.7 14.2 19.3-9.3-3.5 22.7L85.7 66z"
      class="illustration-confirm-email-0"
    />
    <path
      id="reuse-2"
      d="m306.7 24.9-30.4 26.6 39.2 47.2.3.4 32-27.3-41.1-46.9zm39 45.9-34-9.2-4.3-34.5 38.3 43.7zm-68.1-19.2 28.7-25.1 4.5 35.8 35.3 9.5-30.2 25.8-38.3-46z"
      class="illustration-confirm-email-0"
    />
    <path
      id="reuse-3"
      d="M36.3 162.5c-.3 0-.5-.2-.5-.5v-1.9c0-.3.2-.5.5-.5s.5.2.5.5v1.9c0 .3-.2.5-.5.5zm.3-6.7c-.1 0-.1 0 0 0-.3 0-.5-.2-.5-.5 0-.6.1-1.3.1-1.9 0-.3.2-.5.5-.5s.5.2.5.5c0 .6-.1 1.3-.1 1.9-.1.3-.3.5-.5.5zm.3-6.8c-.3 0-.5-.3-.5-.5 0-.6.1-1.3.1-1.9 0-.3.2-.5.5-.4.3 0 .5.3.4.5 0 .6-.1 1.3-.1 1.9.1.2-.1.4-.4.4zm.6-6.7c-.3 0-.5-.3-.5-.5.1-.6.1-1.3.2-1.9 0-.3.3-.5.5-.4.3 0 .5.3.4.5-.1.6-.1 1.3-.2 1.9.1.2-.1.4-.4.4zm.8-6.7c-.1 0-.1-.1 0 0-.3 0-.5-.3-.5-.5l.3-1.9c0-.3.3-.4.5-.4.3 0 .5.3.4.5l-.3 1.9c0 .2-.2.4-.4.4zm.9-6.7s0-.1 0 0c-.3 0-.5-.3-.5-.6l.3-1.9c0-.3.3-.4.6-.4s.4.3.4.6l-.3 1.9c0 .2-.2.4-.5.4zm1.2-6.7c-.1 0-.1 0 0 0-.4-.1-.5-.3-.5-.6.1-.6.2-1.3.4-1.9.1-.3.3-.4.6-.4.3.1.4.3.4.6-.1.6-.2 1.3-.4 1.9-.1.2-.3.4-.5.4zm1.4-6.6h-.1c-.3-.1-.4-.3-.4-.6.1-.6.3-1.3.4-1.9.1-.3.3-.4.6-.4.3.1.4.3.4.6-.1.6-.3 1.3-.4 1.9-.1.2-.3.4-.5.4zm1.5-6.6h-.1c-.3-.1-.4-.3-.3-.6.2-.6.3-1.2.5-1.9.1-.3.3-.4.6-.3.3.1.4.3.3.6-.2.6-.3 1.2-.5 1.9 0 .1-.2.3-.5.3zm1.9-6.5h-.1c-.3-.1-.4-.3-.3-.6.2-.6.4-1.2.6-1.9.1-.3.3-.4.6-.3.3.1.4.4.3.6l-.6 1.8c-.1.2-.3.4-.5.4zm2-6.5H47c-.3-.1-.4-.4-.3-.6l.6-1.8c.1-.3.4-.4.6-.3.3.1.4.4.3.6l-.6 1.8c0 .2-.2.3-.4.3zm2.3-6.3h-.2c-.2-.1-.4-.4-.3-.6.2-.6.5-1.2.7-1.8.1-.2.4-.4.6-.3.2.1.4.4.3.6-.2.6-.5 1.2-.7 1.8 0 .1-.2.3-.4.3zm2.6-6.3h-.2c-.2-.1-.4-.4-.3-.6.3-.6.5-1.2.8-1.8.1-.2.4-.4.6-.2.2.1.4.4.2.6-.3.6-.5 1.2-.8 1.8 0 .1-.1.2-.3.2zm2.8-6.2h-.2c-.2-.1-.3-.4-.2-.6.3-.6.6-1.2.8-1.7.1-.2.4-.3.6-.2.2.1.3.4.2.6-.3.6-.6 1.2-.8 1.7-.1.1-.3.2-.4.2zm3-6c-.1 0-.2 0-.2-.1-.2-.1-.3-.4-.2-.7.3-.6.6-1.1.9-1.7.1-.2.4-.3.7-.2.2.1.3.4.2.7-.3.6-.6 1.1-.9 1.7-.1.2-.3.3-.5.3zm3.3-5.9c-.1 0-.2 0-.2-.1-.2-.1-.3-.4-.2-.7.3-.6.7-1.1 1-1.7.1-.2.4-.3.7-.2.2.1.3.4.2.7-.3.5-.7 1.1-1 1.7-.1.2-.3.3-.5.3zm3.6-5.8c-.1 0-.2 0-.3-.1-.2-.1-.3-.4-.1-.7.4-.5.7-1.1 1.1-1.6.2-.2.5-.3.7-.1.2.2.3.5.1.7-.4.5-.7 1.1-1.1 1.6-.1.2-.2.2-.4.2zm3.9-5.5c-.1 0-.2 0-.3-.1-.2-.2-.3-.5-.1-.7.4-.5.8-1 1.2-1.6.2-.2.5-.3.7-.1.2.2.3.5.1.7-.4.5-.8 1-1.1 1.6-.2.1-.4.2-.5.2zm4.1-5.4c-.1 0-.2 0-.3-.1-.2-.2-.2-.5-.1-.7l1.2-1.5c.2-.2.5-.2.7-.1.2.2.2.5.1.7l-1.2 1.5c-.1.1-.3.2-.4.2zm4.4-5.2c-.1 0-.2 0-.3-.1-.2-.2-.2-.5 0-.7.4-.5.9-1 1.3-1.4.2-.2.5-.2.7 0 .2.2.2.5 0 .7-.4.5-.9 1-1.3 1.4-.2.1-.3.1-.4.1zm211.7-1.6h-.2c-.6-.2-1.2-.5-1.8-.7-.2-.1-.4-.4-.3-.6.1-.2.4-.4.6-.3.6.2 1.2.5 1.8.7.2.1.4.4.3.6 0 .2-.2.3-.4.3zm-6.2-2.6h-.2l-1.8-.8c-.2-.1-.4-.4-.3-.6.1-.2.4-.4.6-.3l1.8.8c.2.1.4.4.3.6-.1.2-.2.3-.4.3zm-200.9-.8c-.1 0-.2 0-.3-.1-.2-.2-.2-.5 0-.7l1.4-1.4c.2-.2.5-.2.7 0 .2.2.2.5 0 .7l-1.4 1.4c-.2.1-.3.1-.4.1zm194.7-1.9h-.2l-1.8-.8c-.2-.1-.4-.4-.2-.6.1-.2.4-.4.6-.2l1.8.8c.2.1.4.4.2.6-.1.1-.3.2-.4.2zm-6.2-2.7h-.2l-1.8-.8c-.2-.1-.4-.4-.2-.6.1-.2.4-.3.6-.2l1.8.8c.2.1.4.4.2.6-.1.1-.2.2-.4.2zm-183.7-.1c-.1 0-.3-.1-.4-.2-.2-.2-.2-.5 0-.7.5-.4.9-.9 1.4-1.3.2-.2.5-.2.7 0 .2.2.2.5 0 .7-.5.4-.9.9-1.4 1.3-.1.2-.2.2-.3.2zM264.1 31h-.2l-1.8-.8c-.2-.1-.3-.4-.2-.6.1-.2.4-.3.6-.2l1.8.8c.2.1.3.4.2.6 0 .1-.2.2-.4.2zM91.7 29.2c-.1 0-.3-.1-.4-.2-.2-.2-.1-.5.1-.7l1.5-1.2c.2-.2.5-.1.7.1.2.2.1.5-.1.7L92 29.1c-.1.1-.2.1-.3.1zm166.3-1h-.2l-1.8-.8c-.2-.1-.3-.4-.2-.6.1-.2.4-.3.6-.2l1.8.8c.2.1.3.4.2.6-.1.1-.3.2-.4.2zm-6.2-2.9h-.2l-1.8-.8c-.2-.1-.4-.4-.2-.6.1-.2.4-.4.6-.2l1.8.8c.2.1.4.4.2.6 0 .1-.2.2-.4.2zM96.9 25c-.1 0-.3-.1-.4-.2-.2-.2-.1-.5.1-.7.5-.4 1-.8 1.6-1.2.2-.2.5-.1.7.1.2.2.1.5-.1.7l-1.5 1.2c-.2.1-.3.1-.4.1zm148.7-2.4h-.2l-1.8-.8c-.2-.1-.4-.4-.2-.6.1-.2.4-.4.6-.2l1.8.8c.2.1.4.4.2.6 0 0-.2.2-.4.2zM102.4 21c-.2 0-.3-.1-.4-.2-.2-.2-.1-.5.1-.7.5-.4 1.1-.7 1.6-1.1.2-.1.5-.1.7.1.1.2.1.5-.1.7-.5.4-1.1.7-1.6 1.1-.1.1-.2.1-.3.1zm137-1.2h-.2l-1.8-.8c-.2-.1-.4-.4-.3-.6.1-.2.4-.4.6-.3l1.8.8c.2.1.4.4.3.6 0 .2-.2.3-.4.3zm-131.3-2.4c-.2 0-.3-.1-.4-.2-.1-.2-.1-.5.2-.7.6-.3 1.1-.7 1.7-1 .2-.1.5-.1.7.2.1.2.1.5-.2.7-.6.3-1.1.7-1.7 1-.1-.1-.2 0-.3 0zm125.1-.2h-.2c-.6-.2-1.2-.5-1.8-.7-.2-.1-.4-.4-.3-.6.1-.2.4-.4.6-.3.6.2 1.2.5 1.8.7.2.1.4.4.3.6 0 .2-.2.3-.4.3zm-6.3-2.6h-.2c-.6-.2-1.2-.5-1.8-.7-.2-.1-.4-.4-.3-.6.1-.2.4-.4.6-.3.6.2 1.2.5 1.8.7.2.1.4.4.3.6 0 .2-.2.3-.4.3zM114 14c-.2 0-.3-.1-.4-.3-.1-.2 0-.5.2-.7.6-.3 1.1-.6 1.7-.9.2-.1.5 0 .7.2.1.2 0 .5-.2.7-.6.3-1.1.6-1.7.9-.2.1-.2.1-.3.1zm106.6-1.8h-.2c-.6-.2-1.2-.4-1.8-.7-.3-.1-.4-.4-.3-.6.1-.3.4-.4.6-.3.6.2 1.2.4 1.8.7.3.1.4.4.3.6 0 .2-.2.3-.4.3zM120 11c-.2 0-.4-.1-.4-.3-.1-.2 0-.5.2-.6.6-.3 1.2-.5 1.8-.8.2-.1.5 0 .6.2.1.2 0 .5-.2.6-.6.3-1.2.5-1.8.8 0 .1-.1.1-.2.1zm94.2-1h-.2l-1.8-.6c-.3-.1-.4-.4-.3-.6.1-.3.4-.4.6-.3l1.8.6c.3.1.4.4.3.6 0 .2-.2.3-.4.3zm-87.9-1.6c-.2 0-.4-.1-.4-.3-.1-.2 0-.5.3-.6.6-.2 1.2-.5 1.8-.7.3-.1.5 0 .6.3.1.3 0 .5-.3.6-.6.2-1.2.5-1.8.7-.1-.1-.2 0-.2 0zm81.5-.5h-.1c-.6-.2-1.2-.4-1.9-.6-.3-.1-.4-.3-.3-.6.1-.3.3-.4.6-.3.6.2 1.2.4 1.9.6.3.1.4.3.3.6-.1.2-.3.3-.5.3zm-6.5-1.8h-.1c-.6-.2-1.2-.3-1.9-.5-.3-.1-.4-.3-.3-.6.1-.3.3-.4.6-.3.6.2 1.3.3 1.9.5.3.1.4.3.3.6-.1.1-.3.3-.5.3zm-68.7 0c-.2 0-.4-.1-.5-.3-.1-.3.1-.5.3-.6.6-.2 1.2-.4 1.9-.6.3-.1.5.1.6.3.1.3-.1.5-.3.6l-1.8.6h-.2zm62.1-1.6h-.1c-.6-.1-1.3-.3-1.9-.4-.3-.1-.4-.3-.4-.6.1-.3.3-.4.6-.4.6.1 1.3.3 1.9.4.3.1.4.3.4.6-.1.2-.3.4-.5.4zm-55.6-.3c-.2 0-.4-.1-.5-.4-.1-.3.1-.5.3-.6.6-.2 1.3-.3 1.9-.5.3-.1.5.1.6.4.1.3-.1.5-.4.6-.6.1-1.2.3-1.9.5.1 0 .1 0 0 0zm49-1.1c-.1 0-.1 0 0 0l-2-.3c-.3 0-.4-.3-.4-.6s.3-.4.6-.4l1.9.3c.3 0 .4.3.4.6-.1.3-.3.4-.5.4zm-42.4-.4c-.2 0-.4-.2-.5-.4 0-.3.1-.5.4-.6l1.9-.3c.3 0 .5.1.6.4 0 .3-.1.5-.4.6-.6.1-1.2.2-2 .3.1 0 .1 0 0 0zm35.7-.6c-.1 0-.1 0 0 0-.7-.1-1.3-.2-2-.2-.3 0-.5-.3-.4-.5 0-.3.3-.5.5-.4.6.1 1.3.2 1.9.2.3 0 .5.3.4.5 0 .2-.2.4-.4.4zm-29-.4c-.2 0-.5-.2-.5-.4 0-.3.2-.5.4-.5.6-.1 1.3-.1 1.9-.2.3 0 .5.2.5.4 0 .3-.2.5-.4.5-.5.1-1.2.1-1.9.2.1 0 0 0 0 0zm22.2-.4c-.7-.1-1.3-.1-2-.1-.3 0-.5-.2-.5-.5s.3-.5.5-.5c.6 0 1.3.1 1.9.1.3 0 .5.3.4.5.2.4 0 .5-.3.5zm-15.4-.2c-.3 0-.5-.2-.5-.5s.2-.5.5-.5c.6 0 1.3-.1 1.9-.1.3 0 .5.2.5.5s-.2.5-.5.5c-.6.1-1.3.1-1.9.1zm8.7-.1H166c-.3 0-.5-.2-.5-.5s.2-.5.5-.5h1.9c.3 0 .5.2.5.5s-.3.5-.5.5z"
      class="illustration-confirm-email-0"
    />
    <path
      id="reuse-4"
      d="M411.8 182.1h-.2c-.2-.1-.3-.4-.2-.6.3-.6.6-1.2.8-1.7.1-.2.4-.3.6-.2.2.1.3.4.2.6-.3.6-.6 1.2-.8 1.8 0 0-.2.1-.4.1zm2.8-6.1h-.2c-.2-.1-.4-.4-.3-.6.3-.6.5-1.2.7-1.8.1-.2.4-.4.6-.3.2.1.4.4.3.6-.2.6-.5 1.2-.7 1.8 0 .2-.2.3-.4.3zm2.5-6.3h-.2c-.3-.1-.4-.4-.3-.6l.6-1.8c.1-.3.4-.4.6-.3.3.1.4.4.3.6l-.6 1.8c0 .2-.2.3-.4.3zm2.1-6.5h-.1c-.3-.1-.4-.3-.3-.6.2-.6.4-1.2.5-1.9.1-.3.3-.4.6-.3.3.1.4.3.3.6-.2.6-.3 1.2-.5 1.9-.1.2-.3.3-.5.3zm1.7-6.5h-.1c-.3-.1-.4-.3-.4-.6.1-.6.3-1.3.4-1.9.1-.3.3-.4.6-.4.3.1.4.3.4.6-.1.6-.3 1.3-.4 1.9-.1.2-.3.4-.5.4zm1.3-6.6s-.1 0 0 0c-.3 0-.5-.3-.5-.6l.3-1.9c0-.3.3-.4.5-.4.3 0 .4.3.4.5l-.3 1.9c0 .3-.2.5-.4.5zm.9-6.8c-.1 0-.1 0 0 0-.3 0-.5-.3-.5-.5.1-.6.1-1.3.2-1.9 0-.3.3-.5.5-.4.3 0 .5.3.4.5 0 .6-.1 1.3-.2 1.9 0 .3-.2.4-.4.4zm.4-6.7c-.3 0-.5-.2-.5-.5v-1.9c0-.3.2-.5.5-.5s.5.2.5.5v1.9c-.1.3-.3.5-.5.5zm-.1-6.8c-.3 0-.5-.2-.5-.5 0-.6-.1-1.3-.1-1.9 0-.3.2-.5.4-.5s.5.2.5.4c0 .6.1 1.3.1 1.9.1.4-.1.6-.4.6zm-.6-6.7c-.2 0-.4-.2-.5-.4l-.3-1.9c0-.3.1-.5.4-.6.3 0 .5.1.5.4l.3 1.9c.1.3-.1.5-.4.6zm-1.1-6.7c-.2 0-.4-.2-.5-.4-.1-.6-.3-1.3-.4-1.9-.1-.3.1-.5.4-.6.3-.1.5.1.6.4.1.6.3 1.3.4 1.9.1.3-.1.5-.4.6h-.1zm-1.7-6.5c-.2 0-.4-.1-.5-.3l-.6-1.8c-.1-.3.1-.5.3-.6.3-.1.5.1.6.3.2.6.4 1.2.6 1.9.1.3-.1.5-.3.6 0-.2-.1-.1-.1-.1zm-2.3-6.4c-.2 0-.4-.1-.4-.3-.2-.6-.5-1.2-.7-1.8-.1-.2 0-.5.3-.6.2-.1.5 0 .6.3.3.6.5 1.2.7 1.8.1.2 0 .5-.3.6h-.2zm-2.8-6.2c-.2 0-.3-.1-.4-.3-.3-.6-.6-1.1-.9-1.7-.1-.2 0-.5.2-.7.2-.1.5 0 .7.2.3.6.6 1.1.9 1.7.1.2 0 .5-.2.6-.1.2-.2.2-.3.2zm-3.3-5.9c-.2 0-.3-.1-.4-.2-.3-.5-.7-1.1-1-1.6-.1-.2-.1-.5.1-.7.2-.1.5-.1.7.1.4.5.7 1.1 1 1.6.1.2.1.5-.2.7 0 .1-.1.1-.2.1zm-3.8-5.6c-.1 0-.3-.1-.4-.2l-1.2-1.5c-.2-.2-.1-.5.1-.7.2-.2.5-.1.7.1l1.2 1.5c.2.2.1.5-.1.7-.1.1-.2.1-.3.1zm-4.3-5.2c-.1 0-.3-.1-.4-.2-.4-.5-.9-.9-1.3-1.4-.2-.2-.2-.5 0-.7.2-.2.5-.2.7 0 .5.5.9.9 1.3 1.4.2.2.2.5 0 .7-.1.2-.2.2-.3.2zm-4.8-4.8c-.1 0-.2 0-.3-.1-.5-.4-1-.8-1.4-1.3-.2-.2-.2-.5-.1-.7.2-.2.5-.2.7-.1.5.4 1 .8 1.5 1.3.2.2.2.5 0 .7-.2.2-.3.2-.4.2zm-5.3-4.2c-.1 0-.2 0-.3-.1-.5-.4-1-.7-1.6-1.1-.2-.2-.3-.5-.1-.7.2-.2.5-.3.7-.1.5.4 1.1.7 1.6 1.1.2.2.3.5.1.7-.1.1-.2.2-.4.2zm-5.7-3.7c-.1 0-.2 0-.2-.1-.6-.3-1.1-.6-1.7-.9-.2-.1-.3-.4-.2-.7.1-.2.4-.3.7-.2.6.3 1.1.6 1.7.9.2.1.3.4.2.7-.1.2-.3.3-.5.3zm-6-3h-.2c-.6-.3-1.2-.5-1.8-.7-.2-.1-.4-.4-.3-.6.1-.2.4-.4.6-.3.6.2 1.2.5 1.8.8.2.1.4.4.2.6.1.1-.1.2-.3.2zm-6.3-2.4h-.2l-1.8-.6c-.3-.1-.4-.3-.3-.6.1-.3.3-.4.6-.3.6.2 1.2.4 1.9.6.3.1.4.4.3.6-.1.1-.3.3-.5.3zm-6.5-1.9h-.1c-.6-.2-1.2-.3-1.9-.4-.3-.1-.4-.3-.4-.6.1-.3.3-.4.6-.4.6.1 1.3.3 1.9.4.3.1.4.3.4.6-.1.3-.3.4-.5.4zm-6.6-1.4c-.1 0-.1 0 0 0-.7-.1-1.4-.2-2-.4-.3 0-.4-.3-.4-.6s.3-.4.6-.4l1.9.3c.3 0 .4.3.4.6-.1.3-.3.5-.5.5zm-6.7-1.1s-.1 0 0 0l-2-.3c-.3 0-.4-.3-.4-.5 0-.3.3-.5.5-.4l1.9.3c.3 0 .4.3.4.6 0 .1-.2.3-.4.3zm-6.7-1s-.1 0 0 0l-2-.3c-.3 0-.5-.3-.4-.5 0-.3.3-.5.5-.4l1.9.3c.3 0 .5.3.4.5 0 .2-.2.4-.4.4zm-6.7-.9s-.1 0 0 0l-2-.3c-.3 0-.5-.3-.4-.5 0-.3.3-.4.5-.4l1.9.3c.3 0 .5.3.4.5 0 .2-.2.4-.4.4zm-6.7-.9c-.1 0-.1 0 0 0l-2-.3c-.3 0-.4-.3-.4-.6s.3-.4.6-.4l1.9.3c.3 0 .4.3.4.6-.1.2-.3.4-.5.4z"
      class="illustration-confirm-email-0"
    />
    <path
      id="reuse-5"
      d="M288.9 205.2h-50.2c-1.7 0-3-1.3-3-3v-27.9c0-1.7 1.3-3 3-3h50.2c1.7 0 3 1.3 3 3v27.9c0 1.6-1.4 3-3 3z"
      class="illustration-confirm-email-4"
    />
    <path
      id="reuse-6"
      d="M175.5 58.9c-2.4 0-4.6 1.2-6.4 2.7s-3.3 3.4-5 5c-4.8 4.6-11.4 7.3-18 7.3-.5 4-2.1 7.9-4.6 11.2-.7.9-1.5 1.9-1.3 3 .1.5.4 1 .7 1.4 1 1.5 2 2.9 3 4.4.3.4.6.9.6 1.4.1.9-.8 1.7-1.5 2.3l-6.4 4.9s-4.3-10.7-4.1-15.4l5-9.3s-9.4-11-2-14.8c7.4-3.8 12.1 1 12.1 1s17.8-8.6 23.2-8.5c5.3.3 4.7 3.4 4.7 3.4z"
      class="illustration-confirm-email-0"
    />
    <path
      id="reuse-7"
      d="m340 162.6.8 1.4s-12.6 20.9-12 34.5c.6 13.6 20.1 10 20.1 10s-1.2 17.1-8.4 16l-1.8-4.2.5-9.5s-7.5.7-12.2-3.9c-4.6-4.6-2.4-14.4 1.8-27.9 4.2-13.4 7.5-18.9 7.5-18.9l3.7 2.5z"
      class="illustration-confirm-email-0"
    />
  </defs>
  <use xlinkHref="#reuse-0" class="illustration-confirm-email-0" />
  <use xlinkHref="#reuse-0" class="illustration-confirm-email-1" />
  <use xlinkHref="#reuse-1" class="illustration-confirm-email-0" />
  <use xlinkHref="#reuse-1" class="illustration-confirm-email-1" />
  <use xlinkHref="#reuse-2" class="illustration-confirm-email-0" />
  <use xlinkHref="#reuse-2" class="illustration-confirm-email-1" />
  <use xlinkHref="#reuse-3" class="illustration-confirm-email-0" />
  <use xlinkHref="#reuse-3" class="illustration-confirm-email-1" />
  <use xlinkHref="#reuse-4" class="illustration-confirm-email-0" />
  <use xlinkHref="#reuse-4" class="illustration-confirm-email-1" />
  <path
    fill="var(--ql-color-white)"
    stroke="var(--ql-color-dark)"
    stroke-miterlimit="10"
    d="M29.3 109.3h159.3v100.9H29.3z"
  />
  <path
    d="m79.2 97.6-3.1-8.8H26.2v128.8h165.5v-120H79.2zm109.4 112.6H29.3V109.3h159.3v100.9z"
    class="illustration-confirm-email-3"
  />
  <path
    d="m33.1 100.1-2.3 2.2 2.4 2.6M30.8 102.3h5.1M46.1 100.1l2.2 2.2-2.3 2.6M48.3 102.3h-5M59.2 102c-.3-1-1.3-1.8-2.3-1.8-1.3 0-2.3 1-2.3 2.3 0 1.3 1 2.3 2.3 2.3.5 0 1-.2 1.4-.5"
    class="illustration-confirm-email-3"
  />
  <path
    d="M57.7 102.3h1.8v-2.1M70.6 93.3l3.2 3.3M73.8 93.4l-3.3 3.2"
    class="illustration-confirm-email-3"
  />
  <path
    d="M150.6 281.5 126 233.6l-71 38.5 24.7 45.3z"
    class="illustration-confirm-email-4"
  />
  <path
    d="m120.8 246.6-14.2 35.5-51.3-9.8 47.6 4.4 16-30.6z"
    class="illustration-confirm-email-0"
  />
  <path
    fill="var(--ql-color-white)"
    d="m120.8 246.6-14.2 35.5-51.3-9.8 47.6 4.4 16-30.6z"
    opacity=".5"
  />
  <path
    d="m55.3 272 24.4 45.4 70.9-35.9-24.9-47.6z"
    class="illustration-confirm-email-6"
  />
  <path
    d="m55.3 272 47.6 4.7 22.8-42.8"
    class="illustration-confirm-email-6"
  />
  <circle
    cx="123.2"
    cy="235.9"
    r="10.5"
    class="illustration-confirm-email-0"
    transform="rotate(-45 123.23 235.87)"
  />
  <circle
    cx="123.2"
    cy="235.9"
    r="10.5"
    opacity=".3"
    transform="rotate(-45 123.23 235.87)"
  />
  <circle
    cx="123.2"
    cy="236.2"
    r="10.5"
    class="illustration-confirm-email-6"
  />
  <circle
    cx="123.2"
    cy="233.3"
    r="10.5"
    class="illustration-confirm-email-0"
  />
  <circle
    cx="123.2"
    cy="233.3"
    r="10.5"
    class="illustration-confirm-email-6"
  />
  <use xlinkHref="#reuse-5" class="illustration-confirm-email-4" />
  <use xlinkHref="#reuse-5" class="illustration-confirm-email-6" />
  <path
    d="M239.4 176.4h49v2.3h-49zM239.4 181.7h49v2.3h-49zM239.4 187h49v2.3h-49zM239.4 192.3h49v2.3h-49zM239.4 197.6h49v2.3h-49z"
    class="illustration-confirm-email-0"
  />
  <path
    d="M232.6 198.8c-8 4.4-15.5 9.5-21.9 15.9-15 14.9-22.4 35.6-33 53.8a166.84 166.84 0 0 1-42.7 48.2c-17.7 13.5-38.7 23.5-61 25.1-22.3 1.6-45.8-6.1-60.3-23s-18.1-43.3-5.8-61.9C18 241.8 38 233.7 56 237.7c7 1.6 13.6 4.7 20 7.9 3.3 1.6 6.6 3.2 10 4.9M263.1 102c10-4.8 21.9-6.1 32.4-2.4 10.5 3.7 19.1 12.9 20.9 23.9 1.6 9.5-2 19.2-7.7 26.9-4.3 5.7-9.8 10.4-15.6 14.7"
    class="illustration-confirm-email-8"
  />
  <path
    d="m204.6 150.5 8.8-5.5 22-26.8 17.8 14.9-22.8 25.7-3.3-2.3-18.6 3.9c0 .1-1.9-7.3-3.9-9.9zM75.6 145l-8.8 7 2.4 5s.4 6.4 4.1 8.4c3.7 2 13.5-4.3 13.5-4.3s1-6.7-2.4-11.7l-8.8-4.4zM179.1 70.3s-15.1 29.3-24 31.3l-3.5 1.2s-3.2 10.1-14 11.8l1.4-8.4-7.9 7.8s-12.7-11.6-9.7-27.5l11.1.7 5-9.3s-4.2-2.4-3.2-7.1c1-4.7 2-9.1 6.9-5.2 0 0 10.6 5.4 19.2-2.2 8.6-7.6 10.9-8.6 15.5-5.9-.2 0-1.3 10.5 3.2 12.8z"
    class="illustration-confirm-email-4"
  />
  <path
    d="M131 113.9s-11.7-7.8-9.9-26.9c0 0-14.4-3.1-34.9-1.5l-61.1 53.6s2 8.1 10.8 9.8c8.8 1.7 30.3 3.1 30.3 3.1l8.4-7.4-19.1-7.9 29.7-17.6v29.5s3.3 9.9 1.4 12.3l-12.9 13s21.6 40 70.3 14.7l-5-27.6s8.1-2.1 3.4-6.5l7.8-12.8s8.3 29.9 15.6 37.6l41.8-18.4s-1.1-7.2-3.4-10.1l-29.4 6.7s.5-26.5-1.4-35.2c-1.9-8.6-5.6-17.2-13.7-23.1 0 0-5.3 3.7-7.9 2.5 0 0-4.6 12.9-14.4 12.9l1.6-9-7 7.5-1 .8"
    class="illustration-confirm-email-0"
  />
  <use xlinkHref="#reuse-6" class="illustration-confirm-email-0" />
  <use xlinkHref="#reuse-6" class="illustration-confirm-email-1" />
  <path
    d="M179 68.4s-9.9 24.8-23.2 33.1c0 0-.9.9-3.7 0-2.8-.9-9-8-11.3-11.5-1.1-1.7-1.5-4.1-1.6-6.3"
    class="illustration-confirm-email-6"
  />
  <path
    d="M154.5 86.4s1.2 3.5 5 4.3M167.8 71a6.15 6.15 0 0 0-5.8-2.1M172.2 73.5c1.5-.5 3.3 0 4.2 1.2M170.5 75.9c-1.1 1.1-2 2.4-2.4 3.9-.4 1.5-.3 3.1.3 4.5.3.6.7 1.1.8 1.8.1.6-.1 1.4-.8 1.6-.3.1-.6 0-.9-.1-1.8-.4-3.5-1.2-5-2.2M142.1 70.1c-.2-1-.5-2-.9-2.9-.5-1.2-1.2-2.5-2.5-2.6-.5-.1-.9.1-1.3.2-1.2.6-2 1.8-2.4 3.1s-.2 2.7.1 4c.2 1.1.5 2.3.9 3.3.3.9.7 1.9 1.4 2.5.9.8 2.2.9 3.3.5 1.1-.5 1.8-1.6 1.8-2.8M136.8 77.5c-1.1 3.8-2.4 6.5-4.4 9.7M66.3 152.1l2.8 4.9s.2 6.9 3.7 8.3c3.5 1.4 13.9-4.2 13.9-4.2.2-.5 1.1-5.5-1.6-11.3 0 0-5-2.8-10.4-5M81.6 163.2 79 152.9M76.8 164.8l-3.3-10.3M55.4 136.7l37-21.4M85.7 119.2c3.5-.1 5.8-.3 9.3-.4M85.5 119.5v30.2M159.1 99s8.8 2.8 14.5 22c1.9 16.5 1.4 36.7 1.4 36.7M214.6 144.3s10.5.4 10.3 2.2c-.3 1.8-9 3.5-9 3.5s.1.1.1.4c0 0 2.1 3.9-1 5.7M214.2 144.3c-4.4 2.3-9.7 6.3-9.7 6.3l-30.4 7.8M116 160.4s9 3.6 20.8-3.2"
    class="illustration-confirm-email-6"
  />
  <path
    d="M163.4 76.7c-.5 1.3-1.3 2.2-2 1.9-.6-.2-.8-1.5-.3-2.7.5-1.3 1.3-2.2 2-1.9.6.2.8 1.4.3 2.7zM172.4 78.9c-.5 1.3-1.3 2.2-2 1.9-.6-.2-.8-1.5-.3-2.7.5-1.3 1.3-2.2 2-1.9.6.1.8 1.4.3 2.7z"
    class="illustration-confirm-email-9"
  />
  <path
    d="M120.4 204.2c1.7-.1 3.5-.2 5.3-.4M75.7 187.3s12.3 16.1 39.1 16.9M219.3 149.6l11.1 9.3 22.7-25.7-17.5-15.2-22.3 26.5"
    class="illustration-confirm-email-6"
  />
  <path
    d="m235.6 118-2.4 20.8-19.9 5.7"
    class="illustration-confirm-email-6"
  />
  <path
    d="M141.2 67.3s13 3.3 22-4.6c9-7.9 11.7-3.6 11.7-3.6s-2.3 7.7 2.9 11.3l12.6-11.5s-6.8-7.3-15.1-6c0 0-6.3-13.5-16.9-14.4-12.5-1.1-41.6 10.1-24.8 46.4l3-7.1s-3.1-9.7.7-12.8c2.9-2.4 3.9 2.3 3.9 2.3z"
    class="illustration-confirm-email-9"
  />
  <path
    d="M179.4 55.5c.5.2 2.3-.5 3-.4 1.3 0 2.6.4 3.8.9 2.7 1.1 5.4 3.3 7.3 5.5 4.2 4.7 8.1 10.9 15 11.3 6.2.4 10.7-4.3 16.5-5 12.2-1.5 21.2 11 19.7 22.2-3.5 25.3-41.9 40.7-70.7 35.4-1-.2-.1-16.1-14.1-26.2 0 0 18.1-21.3 19.3-32.3 1-11 .2-11.4.2-11.4z"
    class="illustration-confirm-email-9"
  />
  <path
    d="M175.1 53.5s1.2-8.2-7.7-15.6M132.5 87.2s-.2 6.2 6.6 18.3l-8 8.4s-13.2-9.5-9.5-27.8l10.9 1.1zM152.1 101.5c-5.8 14.1-14.6 13-14.6 13l1.6-9s5.9-3.3 8.7-6.9c.1-.1-.1.1 0 .1M85.7 161.9l-3-10.5M158.5 127.5l-16.2 27s1.7 1.7 1.1 3.5c-.6 1.8-4.6 3.1-4.6 3.1s5.2 27.6 5.3 27.7c.3 1.7-14.3 6.2-15.8 6.5-11.7 3.2-24 2.9-35-3.1A53.23 53.23 0 0 1 73.8 174l11.8-12.1"
    class="illustration-confirm-email-6"
  />
  <path
    d="M150.3 141.5s2.5 15.2 15.5 37.7l42-18.6 18.7-4.3"
    class="illustration-confirm-email-6"
  />
  <path
    d="M175.1 157.7c-4.2 1.7-7.3 6-7.5 10.6M164.9 161.3c2.1-1.6 4.3-2.9 6.8-3.8M207.9 160.6c.7-2.1-3.4-10-3.4-10M121.6 86.7c-11.8-1.3-31-3-34.7-1.3-5.4 2.4-41.1 35.6-41.1 35.6l-20.6 18.1c.3 6.6 10.8 9.9 10.8 9.9l30.3 3.1 9.3-7s-26.2-11.4-36-12.4"
    class="illustration-confirm-email-6"
  />
  <path
    d="M45.6 128.4s8.6 2.6 9.9 8.3"
    class="illustration-confirm-email-6"
  />
  <path
    d="M175.1 79c2.5 3.9 5.2 7.9 9 10.5 4.6 3.2 10.5 4.2 16.1 3.5s10.8-3 15.6-5.8c3.3-1.9 6.4-4.2 10-5.4 3.6-1.2 7.8-1.3 10.9.9M169 89.6c.2 5.7.6 11.7 3.8 16.4 2.8 4.3 7.6 7.2 12.6 8.6 5.5 1.5 11.5 1.4 16.9-.3 4.5-1.4 8.6-3.9 12.9-5.8s9-3.5 13.7-3"
    class="illustration-confirm-email-10"
  />
  <path
    d="m232.8 255.7.9-9 7.4-4-11.3-21-31.9 16.6 11.2 20.9 6.9-3.4 13.5 7.2zM336.3 160.2s-10.4 24.2-11.3 32.3c-.9 8.2-.5 12.2 3.5 15.1 3.9 2.8 11.1 3 11.1 3l-.7 4.3s-2.8-.2-5 3.1c-2.2 3.3-2.2 5.5-2.2 5.5s2.7 10.8 5 11c2.2.2 4.6-7.4 4.6-7.4s2 10.8 3.9 10.5c1.9-.4 19.5-12.1 19.5-12.1s1.6-8.2-2.3-12.4c0 0-1-8.1.1-11.9 0 0 7.6 1 8-6.8.4-6.9-3.3-9.9-5.5-7.1l-5.2-13 2-9.3-25.5-4.8z"
    class="illustration-confirm-email-4"
  />
  <use xlinkHref="#reuse-7" class="illustration-confirm-email-0" />
  <use xlinkHref="#reuse-7" class="illustration-confirm-email-1" />
  <path
    d="M401.2 258.7c-.7 4.4-2.2 8.6-4.2 12.6-2.1 4.3-4.9 8.3-7.8 11.7l1.8 16.5 4.2 24.6c-.1 0-.1.1-.2.1-.2.2-.7.5-1.3 1h-62.1c-1.6-3.8-3.4-8.1-5.1-12.3-3.1-7.7-5.8-15.1-6.5-18.9-.1-.5-.1-.9-.1-1.3l-10.5-10.5-34.8 18.9-44.8-37.9.1-.1 4.6-9.1 44.6 21.3 9.2-12.8.1-.4 2.6-8.6v-.1l1.6-5.4 2.1-6.9 13.2-6.3 23.8-11.3v.1c.1.4.5 1.7 1 3.3.1.4.2.8.4 1.2l.3.9c.5 1.4 1 2.7 1.6 3.8.1.2.2.4.3.5.2.3.3.5.5.7v.1c.3.3.6.5.8.5 1.1-.1 2.5-2.5 3.4-4.6 0-.1 0-.1.1-.2.5-1.2.9-2.2 1.1-2.5v-.1.1c.1.9 1.3 7.5 2.9 9.7 0 .1.1.1.2.2.3.3.5.5.8.5.8 0 3.2-1.5 6.2-3.5 5.4-3.7 12.4-9 13.5-9.8l.1-.1s.4-1.7 0-5.8c0 0 .1 0 .2.1l29 11.2.8.3s4.2 5.2 6.4 17.9c.5 3.4.5 7.1-.1 10.7z"
    class="illustration-confirm-email-0"
  />
  <path
    d="m305.4 248.6 2.7-15.2-32.1-8.6-5.6 23.2 12.8 4 5.8 11.8 8.8 6 9.6-9 .8-7.2z"
    class="illustration-confirm-email-4"
  />
  <path
    d="m233.7 246.7 7.4-3.6-11.2-21.5-31.8 17.1 11 20.5 15-7.6"
    class="illustration-confirm-email-6"
  />
  <path
    d="m198.1 238.7 21.5 2.2 10.3-19.3M300.3 256.7l3.4 1 4.5-24.6-32.2-8.4-5.6 23.3 12.4 3.6"
    class="illustration-confirm-email-6"
  />
  <path
    d="m276.1 224.7 12.8 15.9 19.3-7.5M337.7 156.9s-12.6 28.5-13.4 40.1c-.8 11.5 10 13.3 10.1 13.3 4.3.7 8.9.4 12.9-1.3 3.2-1.4 5.8-4 8.5-6.2"
    class="illustration-confirm-email-6"
  />
  <path
    d="m335.4 189.2-5.1-2.8 6-12.8"
    class="illustration-confirm-email-6"
  />
  <path
    d="M341.8 179.2c-.4 1.1-.2 2.2.4 2.4.6.2 1.4-.6 1.8-1.7.4-1.1.2-2.2-.4-2.4-.7-.2-1.5.6-1.8 1.7zM332 175.6c-.4 1.1-.2 2.2.4 2.4.6.2 1.4-.6 1.8-1.7.4-1.1.2-2.2-.4-2.4-.6-.2-1.4.5-1.8 1.7z"
    class="illustration-confirm-email-9"
  />
  <path
    d="M342.4 191.7s-2.5 3.3-7.3 2.7"
    class="illustration-confirm-email-6"
  />
  <path
    d="M342.3 173c1.1-.7 2.7-.3 3.6.7.9.9 1.4 2.2 1.9 3.5M336.7 171.5c-.3-.8-1-1.4-1.9-1.5-.9-.1-1.7.3-2.2 1.1"
    class="illustration-confirm-email-11"
  />
  <path
    d="M362 192.9s3.4-5.5 6.9-4.3c3.5 1.2 1.8 6.3.2 9.5-1.7 3.2-6 3.4-8.4 2"
    class="illustration-confirm-email-6"
  />
  <path
    d="M370 196s3.3-5.6-.2-7.5c-3.6-1.9-7.9 4.5-7.9 4.5-.1.1-.5 0-.9-.2-1.7-.6-2.5-2.6-1.8-4.3.1-.4.3-.7.4-1 .5-1.4.6-3 .4-4.5-.6-3.1-2.8-5.5-2.4-8.8.3-2.5 1.1-5.1 2.3-7.3-18.2 3.6-29.1-6.7-26.7-15.2 2.4-8.5 8.2-.9 20.9-5.8 12.7-4.8 21.9 15.8 21.9 15.8 12.7 8.8.6 21.1.6 21.1l-6.5 13.5-.1-.3z"
    class="illustration-confirm-email-9"
  />
  <path
    d="M389.1 282.6c.5 16 6 41.5 6 41.5s0 0 0 0c-.1 0-.1.1-.2.1-.5.3-.9.7-1.4 1M331.1 325.2c-1.6-3.8-3.2-7.9-4.8-12.3-2.3-6.3-4.5-13.1-6.6-20.1M364.9 218.3s25.9 9.2 29.8 11.6M341.6 225.7c-2-1.5-3.2-5.3-2.7-8.1l.6-6.6M362.4 200.8s-1.3 4.3-.2 12.1"
    class="illustration-confirm-email-6"
  />
  <path
    d="m353.8 293-46-32.3-10.1 9s40.9 45.6 57.1 52.8c0 0 32.2-34.8 42.7-52 0 0 10.5-17.2-2.7-40.5M348.3 289.2l24.7-32.7M349 289.7l15.5.7"
    class="illustration-confirm-email-6"
  />
  <path
    fill="none"
    stroke="var(--ql-color-dark)"
    stroke-linecap="round"
    stroke-miterlimit="10"
    d="M376.1 163.2s2-8-3-14.2"
  />
  <path
    d="m288.1 262.6-9.5 13.1-44.8-21.8-4.2 9.2 44.8 38.1 34.6-19M307.8 235.3l23.8-11.9M232.5 256.3l1.3-12-4.8-8.9s.7-6.3-.7-6.3-1.3 15.4-1.3 15.4-4.1 2.9-2.6 9.2M216.7 255.6l12.9 7.5M305.6 248.9l2.4 4.2-.4 7.6"
    class="illustration-confirm-email-6"
  />
  <path
    d="M301.2 258c0-.7-13.7-15.4-13.7-15.4l-1.6 1.2 5.6 11-4.7-8.3-1.3 1.6 1.2 6-1.6-4.4-2.2 1.2 6.1 12.9 8.6 5.6M362.3 212.9s-10.7 8.5-20.7 12.3c0 0 1 11.5 3.4 12.2.9.3 2.3-.7 3.1-1.1 1.8-1 3.5-2.1 5.1-3.2 3.4-2.3 6.7-4.8 10-7.3.6-.5 1.6-1 1.6-1.8.3-4 .5-7.9-2.5-11.1h0zM341.6 225.2s-2.7 9.5-5 9.2c-2.3-.3-5.1-11.6-5.1-11.6s2.6-9 7.5-7.5M278.8 275.3c.4 3.4.4 6.8 0 10.2M312 253.7l3.8 12.4M370.9 246c-2.9 5.5-4.3 11.8-3.9 18M364.3 253.1c-.4 3.6-.3 7.3.4 10.9M280.4 276.7c1.1 2 1.7 4.1 2 6.3"
    class="illustration-confirm-email-6"
  />
  <path
    d="M336 153.1c.3 1.6 1.4 3 2.8 4 1.3 1 2.9 1.6 4.5 2.1 4.7 1.5 9.6 2.3 14.5 2.3 1.1 0 2.2 0 3.2.3s2 1 2.4 2M339.7 149.2c.6 2.7 3.5 4.5 6.2 4.9 2.8.4 5.6-.2 8.3-.6 2.8-.4 5.7-.5 8.2.8 2.5 1.3 4.1 4.5 2.9 7"
    class="illustration-confirm-email-10"
  />
  <path
    d="M312 325.2h117M267.5 325.2h35.4M345.1 339.2h-65.7l-25.1 13.5h68.9zM283.7 342.7h48.5M280.2 345.2h47.1M276.6 347.8h45.8M332.5 342.7l-13.9 6.8M324.9 342.7l-13.9 6.8"
    class="illustration-confirm-email-6"
  />
  <path
    d="M242.6 305.5h68.8l11.8 47.2h-68.9z"
    class="illustration-confirm-email-9"
  />
  <path
    d="M253.7 352.7h69.4v3.4h-69.4z"
    class="illustration-confirm-email-6"
  />
  <path
    fill="var(--ql-color-white)"
    stroke="var(--ql-color-dark)"
    stroke-linecap="round"
    stroke-linejoin="round"
    stroke-miterlimit="10"
    d="M241.8 305.5h68.8l11.8 47.2h-68.8z"
  />
  <path
    d="m323.2 352.7 22.4-13.6-.1 2.5-22.1 14.9z"
    class="illustration-confirm-email-9"
  />
  <path
    d="M285.1 327.6c.3 2-1.1 3.9-3.1 4.2-2 .3-3.9-1.1-4.2-3.1-.3-1.9.9-3.6 2.7-4.1 2.1-.4 4.2 1 4.6 3z"
    class="illustration-confirm-email-6"
  />
</svg>