<svg width="179" height="49" viewBox="0 0 179 49" fill="none" xmlns="http://www.w3.org/2000/svg">
<path d="M66.628 37V11.8H74.908C77.596 11.8 79.924 12.34 81.892 13.42C83.86 14.5 85.384 15.988 86.464 17.884C87.544 19.78 88.084 21.952 88.084 24.4C88.084 26.848 87.544 29.02 86.464 30.916C85.384 32.812 83.86 34.3 81.892 35.38C79.924 36.46 77.596 37 74.908 37H66.628ZM70.912 33.22H74.944C76.648 33.22 78.16 32.872 79.48 32.176C80.824 31.456 81.88 30.436 82.648 29.116C83.416 27.772 83.8 26.2 83.8 24.4C83.8 22.576 83.416 21.004 82.648 19.684C81.88 18.364 80.824 17.356 79.48 16.66C78.16 15.94 76.648 15.58 74.944 15.58H70.912V33.22ZM101.155 37C99.0908 37 97.2788 36.616 95.7188 35.848C94.1828 35.056 92.9828 33.976 92.1188 32.608C91.2548 31.216 90.8228 29.62 90.8228 27.82C90.8228 25.924 91.2068 24.256 91.9748 22.816C92.7428 21.376 93.7988 20.248 95.1428 19.432C96.4868 18.616 98.0348 18.208 99.7868 18.208C101.755 18.208 103.375 18.628 104.647 19.468C105.919 20.308 106.855 21.436 107.455 22.852C108.079 24.268 108.391 25.852 108.391 27.604C108.391 27.844 108.379 28.12 108.355 28.432C108.331 28.744 108.295 28.984 108.247 29.152H95.2148C95.3588 30.112 95.7068 30.916 96.2588 31.564C96.8108 32.188 97.5068 32.668 98.3468 33.004C99.1868 33.316 100.123 33.472 101.155 33.472H106.087V37H101.155ZM95.1788 26.344H104.251C104.227 25.888 104.155 25.432 104.035 24.976C103.939 24.52 103.771 24.088 103.531 23.68C103.315 23.272 103.027 22.924 102.667 22.636C102.331 22.324 101.923 22.084 101.443 21.916C100.963 21.724 100.411 21.628 99.7868 21.628C99.0668 21.628 98.4308 21.772 97.8788 22.06C97.3268 22.324 96.8588 22.684 96.4748 23.14C96.0908 23.572 95.7908 24.076 95.5748 24.652C95.3828 25.204 95.2508 25.768 95.1788 26.344ZM112.257 37V26.416C112.257 24.832 112.617 23.428 113.337 22.204C114.057 20.956 115.077 19.984 116.397 19.288C117.717 18.568 119.265 18.208 121.041 18.208C122.817 18.208 124.353 18.568 125.649 19.288C126.969 19.984 127.989 20.956 128.709 22.204C129.429 23.428 129.789 24.832 129.789 26.416V37H125.685V26.452C125.685 25.516 125.469 24.7 125.037 24.004C124.605 23.284 124.029 22.732 123.309 22.348C122.613 21.94 121.845 21.736 121.005 21.736C120.189 21.736 119.421 21.94 118.701 22.348C118.005 22.732 117.441 23.284 117.009 24.004C116.601 24.7 116.397 25.516 116.397 26.452V37H112.257ZM141.093 37C139.461 37 138.177 36.532 137.241 35.596C136.329 34.66 135.873 33.388 135.873 31.78V14.032H139.977V31.6C139.977 32.152 140.145 32.608 140.481 32.968C140.817 33.304 141.261 33.472 141.813 33.472H145.665V37H141.093ZM132.705 22.168V18.64H145.701V22.168H132.705Z" fill="#202020"/>
<path d="M149.593 37V18.64H153.733V37H149.593ZM151.645 16.084C150.925 16.084 150.301 15.82 149.773 15.292C149.245 14.764 148.981 14.14 148.981 13.42C148.981 12.7 149.245 12.076 149.773 11.548C150.301 11.02 150.925 10.756 151.645 10.756C152.389 10.756 153.013 11.02 153.517 11.548C154.045 12.076 154.309 12.7 154.309 13.42C154.309 14.14 154.045 14.764 153.517 15.292C153.013 15.82 152.389 16.084 151.645 16.084ZM158.699 37V26.416C158.699 24.832 159.059 23.428 159.779 22.204C160.499 20.956 161.519 19.984 162.839 19.288C164.159 18.568 165.707 18.208 167.483 18.208C169.259 18.208 170.795 18.568 172.091 19.288C173.411 19.984 174.431 20.956 175.151 22.204C175.871 23.428 176.231 24.832 176.231 26.416V37H172.127V26.452C172.127 25.516 171.911 24.7 171.479 24.004C171.047 23.284 170.471 22.732 169.751 22.348C169.055 21.94 168.287 21.736 167.447 21.736C166.631 21.736 165.863 21.94 165.143 22.348C164.447 22.732 163.883 23.284 163.451 24.004C163.043 24.7 162.839 25.516 162.839 26.452V37H158.699Z" fill="#01A6B5"/>
<path d="M28.9316 47.0344C41.6436 47.0344 51.9488 36.7292 51.9488 24.0172C51.9488 11.3051 41.6436 1 28.9316 1C16.2195 1 5.9144 11.3051 5.9144 24.0172C5.9144 36.7292 16.2195 47.0344 28.9316 47.0344Z" fill="url(#paint0_linear_557_975)"/>
<path d="M34.3616 26.8227C32.5817 29.9902 31.4354 33.4292 30.9829 37.0492L30.9527 37.2905C30.2589 43.0524 29.5047 47.0042 27.0914 48.6634C25.8244 49.5382 24.0747 48.603 23.9842 47.0645C23.8032 43.354 23.1697 36.476 20.8469 33.0069C21.6916 31.227 24.0144 28.6629 24.0144 28.6629C23.8636 28.693 23.7429 28.7232 23.5921 28.7534C26.2467 27.6975 30.0477 26.6115 34.3616 26.8227Z" fill="url(#paint1_linear_557_975)"/>
<path d="M35.5682 7.72716C33.3962 5.76632 30.9527 5.16299 28.6299 5.28366C25.6434 5.43449 22.8982 6.91266 20.9374 9.17516C19.6101 10.7137 17.3476 12.403 13.9086 12.5538C13.9086 12.5538 17.6492 9.62766 18.1922 8.05899C17.9509 7.96849 17.7096 7.87799 17.4682 7.72716C14.2404 5.85682 7.96572 3.29266 3.07871 7.72716C0.936878 9.68799 0.0620493 12.1617 0.00171595 14.7862C-0.0586174 18.4363 1.47988 22.3278 3.38038 25.2842C5.67305 28.8438 7.18139 32.856 7.66405 37.0492L7.69422 37.2905C8.38805 43.0523 9.14222 47.0042 11.5556 48.6634C12.8226 49.5382 14.5722 48.603 14.6627 47.0645C14.8437 43.2032 15.5376 35.9028 18.0716 32.6147C19.1274 31.1063 20.8469 29.5075 23.5921 28.8137C26.2166 27.7578 30.0176 26.6718 34.3314 26.883C34.6331 26.3702 34.9347 25.8272 35.2666 25.3445C38.5246 20.2162 40.7267 12.403 35.5682 7.72716Z" fill="url(#paint2_linear_557_975)"/>
<path d="M48.7511 26.2495H44.7691V22.2675H42.1748V26.2495H38.2229V28.8137H42.1748V32.7957H44.7691V28.8137H48.7511V26.2495Z" fill="url(#paint3_linear_557_975)"/>
<defs>
<linearGradient id="paint0_linear_557_975" x1="5.89078" y1="24.0223" x2="51.944" y2="24.0223" gradientUnits="userSpaceOnUse">
<stop offset="0.1881" stop-color="#00CFB4"/>
<stop offset="0.9373" stop-color="#00A6B5"/>
</linearGradient>
<linearGradient id="paint1_linear_557_975" x1="27.614" y1="48.9943" x2="27.614" y2="26.8075" gradientUnits="userSpaceOnUse">
<stop offset="0.4356" stop-color="white"/>
<stop offset="0.8514" stop-color="#E4F4FE"/>
</linearGradient>
<linearGradient id="paint2_linear_557_975" x1="38.647" y1="27.1326" x2="0.0322135" y2="27.1326" gradientUnits="userSpaceOnUse">
<stop offset="0.2844" stop-color="white"/>
<stop offset="0.7981" stop-color="#E4F4FE"/>
</linearGradient>
<linearGradient id="paint3_linear_557_975" x1="48.7455" y1="27.5312" x2="38.221" y2="27.5312" gradientUnits="userSpaceOnUse">
<stop offset="0.2844" stop-color="white"/>
<stop offset="0.7981" stop-color="#E4F4FE"/>
</linearGradient>
</defs>
</svg>
